<?xml version="1.0" encoding="utf-8"?>
<!-- Generator: Adobe Illustrator 19.0.0, SVG Export Plug-In . SVG Version: 6.00 Build 0)  -->
<svg version="1.1" id="Layer_1" xmlns="http://www.w3.org/2000/svg" xmlns:xlink="http://www.w3.org/1999/xlink" x="0px" y="0px"
	 viewBox="0 0 960 560" style="enable-background:new 0 0 960 560;" xml:space="preserve">
<style type="text/css">
	.st0{fill:url(#SVGID_1_);}
	.st1{fill:#F2D9AD;}
	.st2{fill:#AFAFAF;}
	.st3{fill:#F2F2F2;}
</style>
<linearGradient id="SVGID_1_" gradientUnits="userSpaceOnUse" x1="960" y1="280" x2="-2.514207e-008" y2="280">
	<stop  offset="3.061225e-002" style="stop-color:#FFFFFF"/>
	<stop  offset="0.349" style="stop-color:#FFFFFC"/>
	<stop  offset="0.6214" style="stop-color:#FFFFF1"/>
	<stop  offset="0.876" style="stop-color:#FFFEE0"/>
	<stop  offset="1" style="stop-color:#FFFED4"/>
</linearGradient>
<rect class="st0" width="960" height="560"/>
<g>
	<path class="st1" d="M430.9,525.2c19.1-2.1,32.9-12.7,45-25.8c13.4-14.6,23.2-31.6,31.4-49.6c1.4-3,2.6-6.2,2.9-9.4
		c0.9-9.7,5.9-17.3,11.6-24.5c5.9-7.4,12.2-14.3,21.5-17.7c11.9-4.4,25.6,2.4,28.8,14.6c0.2,0.9,0,2.1-0.3,3.1
		c-0.6,1.5-0.9,2.5,1,3.6c0.7,0.4,0.8,3,0.3,4c-4.3,7.8-8.8,15.5-13.2,23.2c-0.7,1.3-1.3,2.7-1.6,4.1c-2.4,14.7-7.5,28.5-16.6,40.2
		c-6.8,8.8-14.8,16.9-22.8,24.7c-6.9,6.7-14.6,12.6-21.9,19c-0.9,0.8-1.1,2.4-1.8,3.5c-0.5,0.8-1.1,1.8-1.9,2.2
		c-8.7,4.3-17.7,7.8-27.4,9.1c-7.8,1-14.1-3.4-20.7-6.3c-5.9-2.5-10.4-6.9-12.7-13.1C431.7,528.6,431.4,527,430.9,525.2z"/>
	<path class="st1" d="M360.9,505.5c0.7,0.2,1.6,0.8,2.2,0.6c13.6-3.4,26.8-7.7,38.7-15.3c8-5.1,13.7-12.5,18.6-20.4
		c9.3-14.8,19.2-29.2,30.8-42.3c9.5-10.7,21.9-13.2,35.3-12.6c3.5,0.2,7,1,10.4,2.2c8.4,3,11.2,8.8,8.5,17.4
		c-0.4,1.5-1.6,2.8,0.5,4.1c0.5,0.3,0.3,2.1-0.1,3.1c-2.2,5.3-4.2,10.7-6.9,15.7c-7,13.3-14.7,26.1-24.7,37.4
		c-7.8,8.8-16.5,16.5-27.2,21.4c-4.3,2-9.1,2.8-13.5,4.3c-1.4,0.5-2.5,1.5-3.8,2.3c-0.7,0.4-1.3,1.2-2,1.3c-12.2,3-24.4,5.1-37,3.9
		c-6.7-0.6-11.5-4.7-16.6-7.9c-4-2.5-7.6-5.8-10.9-9.2C361.8,510.2,361.7,507.5,360.9,505.5C361,505.4,360.9,505.5,360.9,505.5z"/>
	<path class="st1" d="M496.5,540.3c11.6-10.3,23.3-20,34.2-30.6c16.2-15.7,27.1-34.5,30.8-57.1c0.2-0.9,0.5-2,1.2-2.6
		c5-4.4,14.2-2.5,16.9,3.7c3.1,7.1,4.1,14.6,1.8,22.2c-3.6,12.2-7.3,24.4-10.9,36.6c-0.2,0.8-0.5,2.2-0.2,2.4c3.7,2.3,1.1,4.9,0,6.8
		c-4,7-7.8,14.2-12.8,20.5c-4.6,5.8-11.3,9.3-18.5,11.4c-13.8,4-25.8-0.1-36.7-8.4C500.3,543.7,498.3,541.9,496.5,540.3z"/>
	<g>
		<polygon class="st2" points="613.5,144.3 622.7,131 637.2,116.3 646.5,110 672.2,110 701.3,124.3 715.9,144.1 728.5,153.7 
			746.6,185.9 759.3,205.7 774.2,241.1 782.6,266.7 787.8,294 783.9,310.6 762.5,320 743.4,320 733.3,316.1 724.6,311.8 
			722.1,298.7 734.1,253.7 736,238.7 694.4,177.3 680.2,168.4 637.2,147.7 620.9,151.3 614.4,147.7 		"/>
		<path d="M235.4,446.3c3.5-14.8,7.1-29.5,10.1-44.4c3.9-19.4,7.9-38.9,10.8-58.5c3.6-24.1,6.7-48.3,8.8-72.6
			c1.6-18.5,1.8-37.2-3.4-55.4c-1.2-4.1-3-8-4.7-12.4c0.1,0-0.2-0.4-0.2-0.4l-0.7-1.2c0,0-0.8-1.4-1.2-2.7
			c-1.8-5.4-6.5-7.6-11.5-8.4c-7.1-1.2-14.3-2.1-21.5-2.4c-28.4-1.2-56.8-1.6-85.1-3.3c-26.5-1.6-53-4.3-79.4-6.5
			c-17.6-1.5-35.2-2.9-52.8-4.3c-0.5,0-1,0.1-1.4,0.2v314.9c13.6,1.3,27.3,2.2,40.9,4.1c13.3,1.8,26.4,4.8,39.7,6.9
			c17.6,2.8,35.3,5.3,53,7.9c14.3,2.1,28.5,4.4,42.8,6.4c1.3,0.2,3.2-0.3,4.2-1.2c11-9.1,21.9-18.3,32.9-27.4
			c2.2-1.9,4.5-4.1,7.1-5.1c5.9-2.2,6.6-7.1,7.3-12.2c0.7-4.8,1.6-9.6,2.7-14.3"/>
		<path class="st1" d="M757.5,278.6c-6.4-14.4-12.4-29-19.9-42.8c-7.9-14.6-16.8-28.7-26.2-42.3c-10.9-15.8-22.5-31.4-37.5-43.5
			c-12.8-10.4-27.9-15.3-44.7-10.9c-3.6,1-6.9,2.9-10.4,4.5c-1,0.5-2,1.2-3.6,1.2c0.2-0.3,0.5-0.7,0.7-1c-0.2,0-0.3,0-0.5,0
			c-0.7,0-1.3-0.1-1.8-0.2c-3.1,4.3-6.3,8.5-9.5,12.7c-1.3,1.7-3.3,2.8-5.2,4c-4.5,2.9-9.1,5.7-13.7,8.4c-1.3,0.8-3,1.5-4.4,1.4
			c-13.7-1.1-27.3-2.5-41-3.8c-10.2-1-20.5-1.5-30.7-3.1c-19.8-3.2-37.5,2.3-54.5,11.7c-2.9,1.6-5.7,3.3-8.5,5.1
			c-1.8,1.2-4.4,1.9-3.4,5.2c0.2,0.7-1.1,2.1-1.9,2.9c-14.4,14.3-28.6,28.8-43.3,42.8c-4.7,4.5-6.5,10.2-8.5,16
			c-3.7,11.1-5.6,22.5-6.7,34.1c-0.4,4.7-4,9.2-6.2,13.7c-4,8.4-8.2,16.6-11.9,25.1c-1.2,2.8-1.5,6.2-1.3,9.3c0.4,6.9,6,9,11.3,10.9
			c9.9,3.4,19.1,0.9,27.8-4c13.9-7.8,23.9-19.8,32.9-32.5c5.7-8,10.1-17,16-24.9c8.2-10.9,18.9-19.2,31.9-23.7
			c3.4-1.2,7.9,0,11.8,0.8c24.4,5,48.1,12,71,21.6c9.5,3.9,18.5,9,27.9,13.1c12,5.2,24.2,10,36.2,14.9c18,7.4,36,14.7,53.9,22.1
			c0.9,0.4,2.2,1.8,2.1,2.6c-0.4,2.1-1.8,1.5-3.4,0.9c-15.7-6.4-31.5-12.6-47.2-19c-13.9-5.6-27.9-11.2-41.6-17.2
			c-8.7-3.8-17-8.7-25.8-12.2c-13.6-5.4-27.4-10.5-41.4-14.9c-12-3.7-24.5-6-36.7-9.1c-3.9-1-7.2,0-10.5,1.7
			c-12.6,6.6-22.9,15.9-30.8,27.7c-4.3,6.4-7.5,13.4-11.9,19.7c-8.4,12-18.1,22.9-30.7,30.6c-10.1,6.2-21,9-32.7,5.5
			c-3.7-1.1-7.3-2.9-10.6-4.9c-2.8-1.6-4.5-10.1-3.6-14c3.2-14.5,10.8-26.9,18.3-39.3c1-1.7,1.7-3.8,1.8-5.8
			c0.4-15.4,4.3-30.1,10.4-44.1c1.8-4.1,5.5-7.4,8.8-10.6c13.3-13.5,26.8-26.8,40.2-40.2c0.2-0.2,0.3-0.6,0.4-1.1
			c-6.1,0-12.3-0.8-18.1,0.2c-7.9,1.4-15.5,4.5-23.3,6.4c-20.9,5-41.9,9.9-62.9,14.7c-13,2.9-26.1,5.4-39.2,8.2
			c-2.3,0.5-3-0.2-3.5-2.3c-2.7-9.9-2.8-9.9-13.2-9.9c-1.8,0-20.8,0-22.6,0c-0.1,0.5-0.2,1-0.4,1.4c3.9,0,24.9,0,28.8-0.1
			c2.7,0,3.9,0.9,4.5,3.5c4.6,17.4,6.7,35,8,52.9c1.7,22.6,0.1,45.1-2.7,67.4c-2.5,19.8-6.5,39.3-12.9,58.3
			c-5.2,15.6-10.6,31.3-16.3,46.7c-2.3,6.2-5.6,11.9-8.4,17.9c-1,2.1-2.2,2.7-4.6,2.3c-2.2-0.4-15.5,0.2-17.8,0.4
			c3,0.3,16.9,1.1,20,1c1.3-0.1,3-1.5,3.6-2.7c4.9-11,9.8-22.1,14.4-33.2c1.2-2.8,2-3,4.8-1.8c7.9,3.5,16,6.7,24,10
			c1.1,0.5,2.1,1.1,3.4,1.7c-5.2,9.6-3.4,18.9,0.8,27.9c1.7,3.6,4.8,6.7,7.5,9.8c10,11.4,20.5,22.3,32.7,31.4
			c4.8,3.6,10.3,6.3,15.5,9.4c-0.8-2.1,0.5-2.5,2.2-3.1c8.4-2.7,16.7-5.4,25-8.5c12.2-4.5,21.2-12.8,28.1-23.7
			c1.6-2.5,3.2-4.9,4.8-7.5c-3-2.2-1.9-4.1-0.2-6.4c3.7-5.1,2.9-8.3-2-12.2c-10.7-8.4-22.6-11.3-35.8-8c-11.2,2.7-22.3,5.5-33.5,8.1
			c-7.4,1.7-14.9,3.5-22.4,0.7c-0.9-0.3-1.8-0.7-2.7-1.1c-0.4-0.2-0.7-0.6-2.1-1.6c2-0.6,3.5-1.6,4.4-1.2c9,3.5,17.6,0.8,26.2-1.5
			c15.6-4.3,31.1-9.4,47.5-7.7c9.8,1,18,6.2,24.5,13.5c1.5,1.6,1.7,4.5,2.5,7.1c2.6-3.4,5.1-7,7.9-10.3c5.8-6.9,11.5-14,17.8-20.4
			c5.9-6,13.9-8.2,22-9c5.6-0.6,11.3-0.5,16.9,0.1c8.2,0.9,14.9,4.7,18.1,13.6c2.4-3.5,4.4-6.5,6.5-9.5c6-8.3,12.8-15.7,22-20.5
			c14.9-7.7,32.8-0.1,37.3,16.1c0.9,3.4,2.4,5.2,5.9,6.5c15.7,5.8,30.1,14.1,42.4,25.6c0.8,0.8,0.8,2.5,1.1,3.9
			c-1.2-0.3-2.9-0.2-3.7-1c-10.5-10.2-22.9-17.4-36.3-23c-2.3-1-4.7-1.8-6.8-2.7c-4.3,7.7-8.4,15-12.7,22.6c0.8,0.2,1.2,0.4,1.6,0.3
			c10.3-1.8,14.9,3.9,17.4,12.2c2.9,9.6,1.4,18.8-1.8,28.1c-3.3,9.7-6,19.7-8.9,29.5c-0.2,0.5-0.2,1.1-0.3,2c5.4-0.1,9.6-2.2,13-6
			c3.3-3.7,5.1-8.1,5.6-12.9c0.5-4.8,0.6-9.7,0.9-14.6c25,5.3,36.2-8.4,33.2-33.3c6.1-1,12.3-1.6,18.3-3.1c8.4-2.1,15.7-6.3,18-15.4
			c1.1-4.5,1.4-9.7,0.3-14.1c-1.6-6.6-5.1-12.7-7-19.2c-2.4-8.3-10.2-9-16.2-12.2c-15.9-8.6-31.9-16.8-47.8-25.3
			c-5.1-2.7-9.9-6-14.8-9c0.8-3.2,2.2-3.2,4.4-1.9c12,7,23.9,14.3,36.2,20.8c11.5,6.1,23.4,11.5,35.2,17.2c1.6,0.8,3.3,1.6,5.1,2.5
			c-0.2,1.1-0.4,2.2-0.7,3.5c0.8,0.3,1.5,0.8,2.3,0.9c3.6,0.5,7.3,1.1,11,1.2c13.6,0.5,21.5-5.6,25.8-18.6
			c5.2-15.8,0.7-29.6-7.5-42.9c-1.5-2.4-1.5-3.6,0.5-5.5c5.5-5.2,10.9-10.5,16.1-16.1c2.6-2.8,5.8-3.6,9.1-4.1
			c0.9-0.1,1.8-0.1,2.7,0.1c0.4-0.3,0.9-0.6,1.4-0.9c-0.1,0-0.1,0-0.2-0.1c5.6-2.6,10.6-4.4,14.9-7.2c8.1-5.2,15.8-11,23.5-16.8
			C757.7,282.4,758,279.8,757.5,278.6z"/>
		<path class="st3" d="M790.3-0.4c-6,3.6-12,7-17.9,10.8c-18.5,11.9-37.2,23.5-55.2,36.1c-12.4,8.7-23.6,18.9-35.5,28.3
			C671,83.3,660,91.4,649.3,100c-10.7,8.6-28.9,33.7-36.6,45c0.3,0.6,2.4-0.7,2.6-0.1c0.1-0.1,8.3-12.5,8.3-12.6
			c5.4-8.8,12.3-15.7,22.4-19.1c8.1-2.8,16.2-2.8,24.1-0.2c20.2,6.6,34.1,21.4,46.9,37.3c12.2,15.1,21.1,32.3,29.7,49.6
			c8.5,17.2,16.6,34.6,23.8,52.3c4.5,11,7.7,22.7,10.2,34.4c1.9,8.6-2.2,16-8.8,21.7c-5.8,5-12.9,6.5-20.2,6.4
			c-7.5-0.1-14.7-1.7-22.1-3.9c-11-1.5-11-1.5-4,12.3c6.1,15,20.3,21.4,38.4,19c16-2.1,30.6-8.4,44.8-15.5
			c19.5-9.8,37.1-22.6,55.5-34.3c25.9-16.5,51.8-33,77.7-49.5c5.8-3.7,11.7-7.1,17.5-10.6V-0.4H790.3z"/>
	</g>
</g>
</svg>
