<?xml version="1.0" encoding="utf-8"?>
<!-- Generator: Adobe Illustrator 19.0.0, SVG Export Plug-In . SVG Version: 6.00 Build 0)  -->
<svg version="1.1" id="Layer_1" xmlns="http://www.w3.org/2000/svg" xmlns:xlink="http://www.w3.org/1999/xlink" x="0px" y="0px"
	 viewBox="0 0 960 560" style="enable-background:new 0 0 960 560;" xml:space="preserve">
<style type="text/css">
	.st0{stroke:#FFFFFF;stroke-miterlimit:10;}
	.st1{fill:#EAEAEA;}
	.st2{fill:#FFFFFF;stroke:#000000;stroke-miterlimit:10;}
	.st3{fill:#666666;}
	.st4{fill:none;}
	.st5{font-family:'MyriadPro-Regular';}
	.st6{font-size:50.0914px;}
	.st7{fill:#FFFFFF;}
	.st8{font-size:29.22px;}
	.st9{fill:#CE0909;}
</style>
<path class="st0" d="M393.5,227.5"/>
<path class="st0" d="M556.5,227.5"/>
<rect y="1" class="st1" width="960" height="560"/>
<g>
	<rect x="325.5" y="36.5" class="st2" width="312" height="492"/>
	<g>
		<g>
			<rect x="374" y="106" class="st3" width="53" height="78"/>
			<rect x="451" y="106" class="st3" width="53" height="78"/>
			<rect x="530" y="106" class="st3" width="53" height="78"/>
		</g>
		<g>
			<rect x="374" y="232" class="st3" width="53" height="79"/>
			<rect x="451" y="232" class="st3" width="53" height="79"/>
			<rect x="530" y="232" class="st3" width="53" height="79"/>
		</g>
		<g>
			<rect x="374" y="348" class="st3" width="53" height="79"/>
			<rect x="451" y="348" class="st3" width="53" height="79"/>
			<rect x="530" y="348" class="st3" width="53" height="79"/>
		</g>
	</g>
	<polyline points="428,529 428,462 530,462 530,528 	"/>
	<rect x="387.1" y="55.6" class="st4" width="190" height="42.3"/>
	<text transform="matrix(0.9171 0 0 1 387.0986 91.2149)"><tspan x="0" y="0" class="st5 st6">HOSPI</tspan><tspan x="130.5" y="0" class="st5 st6">-</tspan></text>
	<rect x="637.5" y="372.5" class="st2" width="243" height="156"/>
	<path d="M637,412h272.9l-71.5-99c-201.3,0-201.5,0-201.5,0"/>
	<rect x="648" y="421" class="st3" width="219" height="67"/>
	<rect x="656.8" y="378.4" class="st4" width="201.9" height="38.6"/>
	<text transform="matrix(0.9171 0 0 1 681.6348 399.1212)" class="st7 st5 st8">Medical Store</text>
	<rect x="82.5" y="372.5" class="st2" width="243" height="156"/>
	<path d="M324,412H50.5l71.5-99c201.3,0,202.1,0,202.1,0"/>
	<rect x="95" y="421" class="st3" width="220" height="67"/>
	<rect x="103.6" y="378.4" class="st4" width="201.9" height="38.6"/>
	<text transform="matrix(0.9171 0 0 1 128.4434 399.1212)" class="st7 st5 st8">Medical Store</text>
	<g>
		<rect x="356" y="60" class="st9" width="4" height="29"/>
		<rect x="346" y="74" class="st9" width="28" height="3"/>
	</g>
	<g>
		<rect x="594" y="60" class="st9" width="3" height="29"/>
		<rect x="583" y="74" class="st9" width="25" height="3"/>
	</g>
</g>
</svg>
