<?xml version="1.0" encoding="utf-8"?>
<!-- Generator: Adobe Illustrator 19.0.0, SVG Export Plug-In . SVG Version: 6.00 Build 0)  -->
<svg version="1.1" xmlns="http://www.w3.org/2000/svg" xmlns:xlink="http://www.w3.org/1999/xlink" x="0px" y="0px"
	 viewBox="0 0 800 800" style="enable-background:new 0 0 800 800;" xml:space="preserve">
<style type="text/css">
	.st0{fill:#32ADD8;}
	.st1{opacity:0.1;fill:#FFFFFF;}
	.st2{clip-path:url(#SVGID_2_);}
	.st3{fill:#FFD0A1;}
	.st4{fill:#FF3645;}
	.st5{opacity:0.1;}
	.st6{fill:#F9C18F;}
	.st7{fill:#FFFFFF;}
	.st8{fill:#B3B3B3;}
	.st9{fill:#F9D0AF;}
	.st10{fill:#4D4D4D;}
	.st11{fill:#666666;}
	.st12{fill:#42BDF4;}
	.st13{fill:#999999;}
	.st14{fill:#E6E6E6;}
	.st15{fill:#CCE4F2;}
	.st16{opacity:5.000000e-002;}
	.st17{fill:#3B91D1;}
	.st18{fill:none;stroke:#999999;stroke-width:1.7056;stroke-linecap:round;stroke-linejoin:round;stroke-miterlimit:10;}
	.st19{font-family:'Quicksand-Bold';}
	.st20{font-size:26.4414px;}
	
		.st21{clip-path:url(#SVGID_2_);fill:none;stroke:#FFFFFF;stroke-width:2;stroke-linecap:round;stroke-linejoin:round;stroke-miterlimit:10;}
	.st22{opacity:0.15;}
	.st23{fill:none;stroke:#999999;stroke-width:1.762;stroke-linecap:round;stroke-linejoin:round;stroke-miterlimit:10;}
	.st24{fill:none;stroke:#CCCCCC;stroke-width:0.8971;stroke-linecap:round;stroke-linejoin:round;stroke-miterlimit:10;}
</style>
<g id="Background">
	<rect class="st0" width="800" height="800"/>
	<circle class="st1" cx="400" cy="400" r="376.8"/>
	<circle class="st1" cx="398.4" cy="413.2" r="147.2"/>
</g>
<g id="Objects">
	<g>
		<defs>
			<rect id="SVGID_1_" width="800" height="800"/>
		</defs>
		<clipPath id="SVGID_2_">
			<use xlink:href="#SVGID_1_"  style="overflow:visible;"/>
		</clipPath>
		<g class="st2">
			<g>
				<g>
					<path class="st3" d="M322.5,417.2c-0.7,5.4-5.7,9.3-11.1,8.5l0,0c-5.4-0.7-9.3-5.7-8.5-11.1l10.3-63.9
						c0.7-5.4,5.7-9.2,11.1-8.5l0,0c5.4,0.7,9.2,5.7,8.5,11.1L322.5,417.2z"/>
					<path class="st3" d="M345.8,413.6c-0.7,5.4-5.7,9.3-11.1,8.5l0,0c-5.4-0.7-9.3-5.7-8.5-11.1l10.3-63.9
						c0.7-5.4,5.7-9.3,11.1-8.5l0,0c5.4,0.7,9.2,5.7,8.5,11.1L345.8,413.6z"/>
					<path class="st3" d="M367.4,421c-0.7,5.4-5.7,9.2-11.1,8.5l0,0c-5.4-0.7-9.3-5.7-8.5-11.1l10.3-63.9c0.7-5.4,5.7-9.2,11.1-8.5
						l0,0c5.4,0.7,9.2,5.7,8.5,11.1L367.4,421z"/>
					<path class="st3" d="M387.9,437.2c-0.7,5.4-5.7,9.3-11.1,8.5l0,0c-5.4-0.7-9.3-5.7-8.5-11.1l10.3-63.9
						c0.7-5.4,5.7-9.2,11.1-8.5l0,0c5.4,0.7,9.2,5.7,8.5,11.1L387.9,437.2z"/>
					<path class="st3" d="M376.9,479.7c-4.5,15.9-21.1,25.2-37.1,20.6l-27.8-7.9c-15.9-4.5-25.2-21.1-20.6-37.1l9.3-34.1
						c8.3-42.5,19.8-18.9,31.8-10.7l27.8,7.9c23.3,4.8,27.4,17.2,24.5,33.5C382,467.8,376.9,479.7,376.9,479.7z"/>
					<polygon class="st3" points="355.3,484.8 308.5,470.9 142.5,916.1 198.5,932.1 					"/>
				</g>
				<path class="st3" d="M312,466.6c1.8,5.6-1.3,11.7-6.9,13.5l0,0c-5.6,1.8-11.7-1.3-13.5-6.9l-19.5-67c-1.8-5.6,1.3-11.7,6.9-13.5
					l0,0c5.6-1.8,11.7,1.3,13.5,6.9L312,466.6z"/>
			</g>
			<g>
				<g>
					<path class="st3" d="M477.5,417.2c0.7,5.4,5.7,9.3,11.1,8.5l0,0c5.4-0.7,9.3-5.7,8.5-11.1l-10.3-63.9
						c-0.7-5.4-5.7-9.2-11.1-8.5l0,0c-5.4,0.7-9.2,5.7-8.5,11.1L477.5,417.2z"/>
					<path class="st3" d="M454.2,413.6c0.7,5.4,5.7,9.3,11.1,8.5l0,0c5.4-0.7,9.3-5.7,8.5-11.1l-10.3-63.9
						c-0.7-5.4-5.7-9.3-11.1-8.5l0,0c-5.4,0.7-9.2,5.7-8.5,11.1L454.2,413.6z"/>
					<path class="st3" d="M432.6,421c0.7,5.4,5.7,9.2,11.1,8.5l0,0c5.4-0.7,9.3-5.7,8.5-11.1L442,354.6c-0.7-5.4-5.7-9.2-11.1-8.5
						l0,0c-5.4,0.7-9.2,5.7-8.5,11.1L432.6,421z"/>
					<path class="st3" d="M412.1,437.2c0.7,5.4,5.7,9.3,11.1,8.5l0,0c5.4-0.7,9.3-5.7,8.5-11.1l-10.3-63.9
						c-0.7-5.4-5.7-9.2-11.1-8.5l0,0c-5.4,0.7-9.2,5.7-8.5,11.1L412.1,437.2z"/>
					<path class="st3" d="M423.1,479.7c4.5,15.9,21.1,25.2,37.1,20.6l27.8-7.9c15.9-4.5,25.2-21.1,20.6-37.1l-9.3-34.1
						c-8.3-42.5-19.8-18.9-31.8-10.7l-27.8,7.9c-23.3,4.8-27.4,17.2-24.5,33.5C418,467.8,423.1,479.7,423.1,479.7z"/>
					<polygon class="st3" points="444.7,484.8 491.5,470.9 657.3,916.1 601.3,932.1 					"/>
				</g>
				<path class="st3" d="M488,466.6c-1.8,5.6,1.3,11.7,6.9,13.5l0,0c5.6,1.8,11.7-1.3,13.5-6.9l19.5-67c1.8-5.6-1.3-11.7-6.9-13.5
					l0,0c-5.6-1.8-11.7,1.3-13.5,6.9L488,466.6z"/>
			</g>
			<g>
				<path class="st4" d="M498,415.1c0-32.1-26-58.2-58.2-58.2c-15.4,0-29.5,6-39.9,15.8c-10.4-9.8-24.4-15.8-39.9-15.8
					c-32.1,0-58.2,26-58.2,58.2c0,18.1,8.3,34.3,21.2,44.9l76.1,64.7l77.5-64.7c0,0,0,0,0,0l0.2-0.2l0,0
					C489.9,449.1,498,433.1,498,415.1z"/>
				<path class="st5" d="M498,415.1c0-32.1-26-58.2-58.2-58.2c-15.4,0-29.5,6-39.9,15.8c0,0-0.1-0.1-0.1-0.1v151.5l76.9-64.3
					c0,0,0,0,0,0l0.2-0.2l0,0C489.9,449.1,498,433.1,498,415.1z"/>
			</g>
		</g>
		<g class="st2">
			<g>
				<g>
					<path class="st6" d="M151,590c-1.9,2.6-5.5,3.3-8.2,1.4l0,0c-2.6-1.9-3.3-5.5-1.4-8.2l22.9-30.5c1.9-2.6,5.5-3.3,8.2-1.4l0,0
						c2.6,1.9,3.3,5.5,1.4,8.2L151,590z"/>
					<path class="st6" d="M164.2,594.5c-1.9,2.6-5.5,3.3-8.2,1.4l0,0c-2.6-1.9-3.3-5.5-1.4-8.2l22.9-30.5c1.9-2.6,5.5-3.3,8.2-1.4
						l0,0c2.6,1.9,3.3,5.5,1.4,8.2L164.2,594.5z"/>
					<path class="st6" d="M173.4,604.3c-1.9,2.6-5.5,3.3-8.2,1.4l0,0c-2.6-1.9-3.3-5.5-1.4-8.2l22.9-30.5c1.9-2.6,5.5-3.3,8.2-1.4
						l0,0c2.6,1.9,3.3,5.5,1.4,8.2L173.4,604.3z"/>
					<path class="st6" d="M179.7,618.4c-1.9,2.6-5.5,3.3-8.2,1.4l0,0c-2.6-1.9-3.3-5.5-1.4-8.2l22.9-30.5c1.9-2.6,5.5-3.3,8.2-1.4
						l0,0c2.6,1.9,3.3,5.5,1.4,8.2L179.7,618.4z"/>
					<path class="st6" d="M162.2,637.6c-6.8,7.1-18,7.3-25.1,0.6l-12.3-11.8c-7.1-6.8-7.3-18-0.6-25.1l14.2-15.3
						c16.1-19.9,15.5-4.4,19.6,3.2l12.3,11.8c10.8,8.9,9.6,16.5,3.6,24.3C168.2,632.8,162.2,637.6,162.2,637.6z"/>
					<polygon class="st6" points="149.5,634.3 128.9,614.1 -50.5,816.9 -19.4,852.2 					"/>
				</g>
			</g>
			<g>
				<path class="st7" d="M196.1,479.4l-55.7-9.5l-19.9,117l86.2,14.6l14.6-85.8L196.1,479.4z M125.8,585.6c-1.3-0.2-2.2-1.5-2-2.8
					c0.2-1.3,1.5-2.2,2.8-2c1.3,0.2,2.2,1.5,2,2.8C128.4,584.9,127.1,585.8,125.8,585.6z M127.4,575.8c-1.3-0.2-2.2-1.5-2-2.8
					c0.2-1.3,1.5-2.2,2.8-2c1.3,0.2,2.2,1.5,2,2.8C130,575.1,128.7,576,127.4,575.8z M129.1,566c-1.3-0.2-2.2-1.5-2-2.8
					c0.2-1.3,1.5-2.2,2.8-2c1.3,0.2,2.2,1.5,2,2.8C131.7,565.4,130.4,566.3,129.1,566z M130.7,556.3c-1.3-0.2-2.2-1.5-2-2.8
					c0.2-1.3,1.5-2.2,2.8-2c1.3,0.2,2.2,1.5,2,2.8C133.3,555.6,132.1,556.5,130.7,556.3z M132.4,546.5c-1.3-0.2-2.2-1.5-2-2.8
					c0.2-1.3,1.5-2.2,2.8-2c1.3,0.2,2.2,1.5,2,2.8C135,545.8,133.7,546.7,132.4,546.5z M134,536.8c-1.3-0.2-2.2-1.5-2-2.8
					c0.2-1.3,1.5-2.2,2.8-2c1.3,0.2,2.2,1.5,2,2.8C136.6,536.1,135.4,537,134,536.8z M135.7,527c-1.3-0.2-2.2-1.5-2-2.8
					c0.2-1.3,1.5-2.2,2.8-2c1.3,0.2,2.2,1.5,2,2.8C138.3,526.3,137,527.2,135.7,527z M137.4,517.2c-1.3-0.2-2.2-1.5-2-2.8
					c0.2-1.3,1.5-2.2,2.8-2c1.3,0.2,2.2,1.5,2,2.8C140,516.6,138.7,517.5,137.4,517.2z M139,507.5c-1.3-0.2-2.2-1.5-2-2.8
					c0.2-1.3,1.5-2.2,2.8-2c1.3,0.2,2.2,1.5,2,2.8C141.6,506.8,140.3,507.7,139,507.5z M140.7,497.7c-1.3-0.2-2.2-1.5-2-2.8
					c0.2-1.3,1.5-2.2,2.8-2c1.3,0.2,2.2,1.5,2,2.8C143.3,497,142,497.9,140.7,497.7z M140.3,485.1c0.2-1.3,1.5-2.2,2.8-2
					c1.3,0.2,2.2,1.5,2,2.8c-0.2,1.3-1.5,2.2-2.8,2C141,487.7,140.1,486.5,140.3,485.1z M144,478.2c-1.3-0.2-2.2-1.5-2-2.8
					c0.2-1.3,1.5-2.2,2.8-2c1.3,0.2,2.2,1.5,2,2.8C146.6,477.5,145.3,478.4,144,478.2z"/>
				<polygon class="st8" points="196.1,479.4 190.9,510.1 221.4,515.3 				"/>
				<g>
					
						<rect x="169.5" y="511.7" transform="matrix(0.9859 0.1672 -0.1672 0.9859 91.3972 -21.6288)" class="st4" width="9.3" height="40.8"/>
					
						<rect x="169.5" y="511.7" transform="matrix(-0.1672 0.9859 -0.9859 -0.1672 727.924 449.3728)" class="st4" width="9.3" height="40.8"/>
				</g>
			</g>
			<path class="st6" d="M131.6,612.9c-1.3,3.2-5,4.8-8.2,3.5l0,0c-3.2-1.3-4.8-5-3.5-8.2l16.4-37.8c1.3-3.2,5-4.8,8.2-3.5l0,0
				c3.2,1.3,4.8,5,3.5,8.2L131.6,612.9z"/>
		</g>
		<g class="st2">
			<g>
				<g>
					<path class="st9" d="M643.7,591.6c2.1,2.4,5.7,2.6,8.1,0.5l0,0c2.4-2.1,2.6-5.7,0.5-8.1l-25.5-27.3c-2.1-2.4-5.7-2.6-8.1-0.5
						l0,0c-2.4,2.1-2.6,5.7-0.5,8.1L643.7,591.6z"/>
					<path class="st9" d="M631.4,597.3c2.1,2.4,5.7,2.6,8.1,0.5l0,0c2.4-2.1,2.6-5.7,0.5-8.1l-25.5-27.3c-2.1-2.4-5.7-2.6-8.1-0.5
						l0,0c-2.4,2.1-2.6,5.7-0.5,8.1L631.4,597.3z"/>
					<path class="st9" d="M623.4,607.8c2.1,2.4,5.7,2.6,8.1,0.5l0,0c2.4-2.1,2.6-5.7,0.5-8.1l-25.5-27.3c-2.1-2.4-5.7-2.6-8.1-0.5
						l0,0c-2.4,2.1-2.6,5.7-0.5,8.1L623.4,607.8z"/>
					<path class="st9" d="M618.8,622.2c2.1,2.4,5.7,2.6,8.1,0.5l0,0c2.4-2.1,2.6-5.7,0.5-8.1l-25.5-27.3c-2.1-2.4-5.7-2.6-8.1-0.5
						l0,0c-2.4,2.1-2.6,5.7-0.5,8.1L618.8,622.2z"/>
					<path class="st9" d="M637.7,639.1c7.3,6.2,18.2,5.3,24.4-2l10.8-12.7c6.2-7.3,5.3-18.2-2-24.4l-15.4-13.4
						c-17.7-17.7-15.6-2.7-18.7,5.1L626,604.3c-9.6,9.8-7.6,17-1,24C631.4,635,637.7,639.1,637.7,639.1z"/>
					<polygon class="st9" points="649.7,634.5 667.7,612.8 863.1,791.5 836.5,829 					"/>
				</g>
			</g>
			<g>
				<path class="st10" d="M655.9,644c0,0.9-0.8,1.5-1.7,1.5l-72.4-4.2c-0.9,0-1.5-0.8-1.5-1.7l6.1-107c0-0.9,0.8-1.5,1.7-1.5
					l72.4,4.1c0.9,0.1,1.5,0.8,1.5,1.7L655.9,644z"/>
				<path class="st11" d="M586.4,532.6c0-0.9,0.8-1.5,1.7-1.5l72.4,4.1c0.9,0.1,1.5,0.8,1.5,1.7l-6.1,107c0,0.9-0.8,1.5-1.7,1.5
					L586.4,532.6z"/>
				
					<rect x="591.2" y="552.3" transform="matrix(0.9984 5.718331e-002 -5.718331e-002 0.9984 35.0264 -34.5249)" class="st7" width="59.1" height="84.9"/>
				<g>
					
						<rect x="603.8" y="563" transform="matrix(0.9985 5.552627e-002 -5.552627e-002 0.9985 32.6767 -32.7523)" class="st4" width="3.9" height="17.2"/>
					
						<rect x="603.8" y="563" transform="matrix(-5.555017e-002 0.9985 -0.9985 -5.555017e-002 1210.1615 -1.383)" class="st4" width="3.9" height="17.2"/>
				</g>
				<path class="st12" d="M648.5,554.8c-0.2,2.7-2.5,4.8-5.2,4.6l-40.9-2.3c-2.7-0.2-4.8-2.5-4.6-5.2l0,0c0.2-2.7,2.5-4.8,5.2-4.6
					l40.9,2.3C646.6,549.8,648.7,552.1,648.5,554.8L648.5,554.8z"/>
				<path class="st12" d="M615.6,553.5c-1-1.6-1.6-3.5-1.5-5.6c0.3-5.2,4.7-9.1,9.9-8.8c5.2,0.3,9.1,4.7,8.8,9.9
					c-0.1,2.1-0.9,3.9-2.1,5.4l3.1,0.2c0.9-1.6,1.5-3.4,1.7-5.4c0.4-6.6-4.7-12.3-11.3-12.7c-6.6-0.4-12.3,4.7-12.7,11.3
					c-0.1,2,0.3,3.9,1,5.6L615.6,553.5z"/>
				
					<rect x="596.2" y="587.6" transform="matrix(0.9984 5.717187e-002 -5.717187e-002 0.9984 34.6568 -34.4858)" class="st13" width="47.7" height="1.7"/>
				
					<rect x="595.7" y="596.4" transform="matrix(0.9984 5.719047e-002 -5.719047e-002 0.9984 35.1735 -34.4533)" class="st13" width="47.7" height="1.7"/>
				
					<rect x="595.1" y="606.7" transform="matrix(0.9984 5.717515e-002 -5.717515e-002 0.9984 35.7502 -34.3939)" class="st13" width="47.7" height="1.7"/>
				
					<rect x="594.6" y="615.6" transform="matrix(0.9984 5.717079e-002 -5.717079e-002 0.9984 36.2523 -34.3479)" class="st13" width="47.7" height="1.7"/>
				
					<rect x="593.9" y="627.1" transform="matrix(0.9984 5.717288e-002 -5.717288e-002 0.9984 36.9145 -34.2923)" class="st13" width="47.7" height="1.7"/>
			</g>
			<path class="st9" d="M665,611.9c1.6,3,5.3,4.2,8.4,2.6l0,0c3-1.6,4.2-5.3,2.6-8.4L656,571c-1.6-3-5.3-4.2-8.4-2.6l0,0
				c-3,1.6-4.2,5.3-2.6,8.4L665,611.9z"/>
		</g>
		<g id="XMLID_2_" class="st2">
			<g id="XMLID_56_">
				<g id="XMLID_57_">
					<path id="XMLID_63_" class="st9" d="M251.7,247.5c-3.5-0.9-5.6-4.5-4.7-8l0,0c0.9-3.5,4.5-5.6,8-4.7l41,12.2
						c3.5,0.9,5.6,4.5,4.7,8l0,0c-0.9,3.5-4.5,5.6-8,4.7L251.7,247.5z"/>
					<path id="XMLID_62_" class="st9" d="M252.1,263.1c-3.5-0.9-5.6-4.5-4.7-8l0,0c0.9-3.5,4.5-5.6,8-4.7l41,12.2
						c3.5,0.9,5.6,4.5,4.7,8l0,0c-0.9,3.5-4.5,5.6-8,4.7L252.1,263.1z"/>
					<path id="XMLID_61_" class="st9" d="M245.4,276.6c-3.5-0.9-5.6-4.5-4.7-8l0,0c0.9-3.5,4.5-5.6,8-4.7l41,12.2
						c3.5,0.9,5.6,4.5,4.7,8l0,0c-0.9,3.5-4.5,5.6-8,4.7L245.4,276.6z"/>
					<path id="XMLID_60_" class="st9" d="M225.6,286c-3.5-0.9,1.9-1.8,2.8-5.3l0,0c0.9-3.5,4.5-5.6,8-4.7l41,12.2
						c3.5,0.9,5.6,4.5,4.7,8l0,0c-0.9,3.5-4.5,5.6-8,4.7L225.6,286z"/>
					<path id="XMLID_59_" class="st9" d="M206.1,277.8c-10.1-4.3-14.7-16-10.4-26.1l1.1-18.4c4.3-10.1,22.4-13.8,32.5-9.5l21.6,9
						c27.2,9.1,10.7,14.6,4.3,21.8l-7.6,17.5c-5.1,14.9-13.6,16.5-24.1,13.2C213.5,282.2,206.1,277.8,206.1,277.8z"/>
					<polygon id="XMLID_58_" class="st9" points="199.3,268 217.7,233.7 -51.3,149.5 -76.2,195.9 					"/>
				</g>
			</g>
			<g id="XMLID_4_">
				<path id="XMLID_55_" class="st14" d="M247.6,293.8c-5.7,3.3-13.1,1.4-16.4-4.3l-19.7-33.7c-3.3-5.7-1.4-13.1,4.3-16.4l57.9-33.8
					c5.7-3.3,13.1-1.4,16.4,4.3l19.7,33.7c3.3,5.7,1.4,13.1-4.3,16.4L247.6,293.8z"/>
				<path id="XMLID_54_" class="st7" d="M248.1,292c-5.5,3.2-12.5,1.4-15.8-4.1l-18.9-32.4c-3.2-5.5-1.4-12.5,4.1-15.8l55.6-32.5
					c5.5-3.2,12.5-1.4,15.8,4.1l18.9,32.4c3.2,5.5,1.4,12.5-4.1,15.8L248.1,292z"/>
				<g id="XMLID_50_">
					<path id="XMLID_53_" class="st4" d="M288.8,228.8c-1.7,1-3.8,0.4-4.8-1.2l-7-12c-1-1.7-0.4-3.8,1.2-4.8l0,0
						c1.7-1,3.8-0.4,4.8,1.2l7,12C291.1,225.7,290.5,227.8,288.8,228.8L288.8,228.8z"/>
					<path id="XMLID_52_" class="st15" d="M290.1,224l-3.5-6l-6,3.5l3.5,6c1,1.7,3.1,2.2,4.8,1.2C290.5,227.8,291.1,225.7,290.1,224
						z"/>
					<path id="XMLID_51_" class="st5" d="M278.3,210.8c-1.6,1-2.1,3.1-1.2,4.7l7,12c1,1.6,3,2.2,4.7,1.3L278.3,210.8z"/>
				</g>
				<g id="XMLID_46_">
					<path id="XMLID_49_" class="st4" d="M303.5,253.8c-1.7,1-3.8,0.4-4.8-1.2l-7-12c-1-1.7-0.4-3.8,1.2-4.8l0,0
						c1.7-1,3.8-0.4,4.8,1.2l7,12C305.7,250.7,305.1,252.8,303.5,253.8L303.5,253.8z"/>
					<path id="XMLID_48_" class="st15" d="M304.7,249l-3.5-6l-6,3.5l3.5,6c1,1.7,3.1,2.2,4.8,1.2C305.1,252.8,305.7,250.7,304.7,249
						z"/>
					<path id="XMLID_47_" class="st5" d="M292.9,235.8c-1.6,1-2.1,3.1-1.2,4.7l7,12c1,1.6,3,2.2,4.7,1.3L292.9,235.8z"/>
				</g>
				<g id="XMLID_42_">
					<path id="XMLID_45_" class="st4" d="M276.8,235.8c-1.7,1-3.8,0.4-4.8-1.2l-7-12c-1-1.7-0.4-3.8,1.2-4.8l0,0
						c1.7-1,3.8-0.4,4.8,1.2l7,12C279,232.7,278.5,234.8,276.8,235.8L276.8,235.8z"/>
					<path id="XMLID_44_" class="st15" d="M278,231l-3.5-6l-6,3.5l3.5,6c1,1.7,3.1,2.2,4.8,1.2C278.5,234.8,279,232.7,278,231z"/>
					<path id="XMLID_43_" class="st5" d="M266.2,217.8c-1.6,1-2.1,3.1-1.2,4.7l7,12c1,1.6,3,2.2,4.7,1.3L266.2,217.8z"/>
				</g>
				<g id="XMLID_38_">
					<path id="XMLID_41_" class="st4" d="M291.4,260.8c-1.7,1-3.8,0.4-4.8-1.2l-7-12c-1-1.7-0.4-3.8,1.2-4.8l0,0
						c1.7-1,3.8-0.4,4.8,1.2l7,12C293.6,257.7,293.1,259.8,291.4,260.8L291.4,260.8z"/>
					<path id="XMLID_40_" class="st15" d="M292.7,256.1l-3.5-6l-6,3.5l3.5,6c1,1.7,3.1,2.2,4.8,1.2
						C293.1,259.8,293.6,257.7,292.7,256.1z"/>
					<path id="XMLID_39_" class="st5" d="M280.8,242.9c-1.6,1-2.1,3.1-1.2,4.7l7,12c1,1.6,3,2.2,4.7,1.3L280.8,242.9z"/>
				</g>
				<g id="XMLID_34_">
					<path id="XMLID_37_" class="st4" d="M265.8,242.2c-1.7,1-3.8,0.4-4.8-1.2l-7-12c-1-1.7-0.4-3.8,1.2-4.8l0,0
						c1.7-1,3.8-0.4,4.8,1.2l7,12C268,239.1,267.5,241.2,265.8,242.2L265.8,242.2z"/>
					<path id="XMLID_36_" class="st15" d="M267,237.5l-3.5-6l-6,3.5l3.5,6c1,1.7,3.1,2.2,4.8,1.2C267.5,241.2,268,239.1,267,237.5z"
						/>
					<path id="XMLID_35_" class="st5" d="M255.2,224.3c-1.6,1-2.1,3.1-1.2,4.7l7,12c1,1.6,3,2.2,4.7,1.3L255.2,224.3z"/>
				</g>
				<g id="XMLID_30_">
					<path id="XMLID_33_" class="st4" d="M280.4,267.2c-1.7,1-3.8,0.4-4.8-1.2l-7-12c-1-1.7-0.4-3.8,1.2-4.8l0,0
						c1.7-1,3.8-0.4,4.8,1.2l7,12C282.6,264.1,282.1,266.3,280.4,267.2L280.4,267.2z"/>
					<path id="XMLID_32_" class="st15" d="M281.7,262.5l-3.5-6l-6,3.5l3.5,6c1,1.7,3.1,2.2,4.8,1.2
						C282.1,266.3,282.6,264.1,281.7,262.5z"/>
					<path id="XMLID_31_" class="st5" d="M269.8,249.3c-1.6,1-2.1,3.1-1.2,4.7l7,12c1,1.6,3,2.2,4.7,1.3L269.8,249.3z"/>
				</g>
				<g id="XMLID_26_">
					<path id="XMLID_29_" class="st4" d="M253.8,249.2c-1.7,1-3.8,0.4-4.8-1.2l-7-12c-1-1.7-0.4-3.8,1.2-4.8l0,0
						c1.7-1,3.8-0.4,4.8,1.2l7,12C256,246.2,255.4,248.3,253.8,249.2L253.8,249.2z"/>
					<path id="XMLID_28_" class="st15" d="M255,244.5l-3.5-6l-6,3.5l3.5,6c1,1.7,3.1,2.2,4.8,1.2C255.4,248.3,256,246.2,255,244.5z"
						/>
					<path id="XMLID_27_" class="st5" d="M243.2,231.3c-1.6,1-2.1,3.1-1.2,4.7l7,12c1,1.6,3,2.2,4.7,1.3L243.2,231.3z"/>
				</g>
				<g id="XMLID_22_">
					<path id="XMLID_25_" class="st4" d="M268.4,274.3c-1.7,1-3.8,0.4-4.8-1.2l-7-12c-1-1.7-0.4-3.8,1.2-4.8l0,0
						c1.7-1,3.8-0.4,4.8,1.2l7,12C270.6,271.2,270,273.3,268.4,274.3L268.4,274.3z"/>
					<path id="XMLID_24_" class="st15" d="M269.6,269.5l-3.5-6l-6,3.5l3.5,6c1,1.7,3.1,2.2,4.8,1.2
						C270,273.3,270.6,271.2,269.6,269.5z"/>
					<path id="XMLID_23_" class="st5" d="M257.8,256.3c-1.6,1-2.1,3.1-1.2,4.7l7,12c1,1.6,3,2.2,4.7,1.3L257.8,256.3z"/>
				</g>
				<g id="XMLID_18_">
					<path id="XMLID_21_" class="st4" d="M240.8,256.8c-1.7,1-3.8,0.4-4.8-1.2l-7-12c-1-1.7-0.4-3.8,1.2-4.8l0,0
						c1.7-1,3.8-0.4,4.8,1.2l7,12C243.1,253.7,242.5,255.8,240.8,256.8L240.8,256.8z"/>
					<path id="XMLID_20_" class="st15" d="M242.1,252l-3.5-6l-6,3.5l3.5,6c1,1.7,3.1,2.2,4.8,1.2C242.5,255.8,243.1,253.7,242.1,252
						z"/>
					<path id="XMLID_19_" class="st5" d="M230.3,238.8c-1.6,1-2.1,3.1-1.2,4.7l7,12c1,1.6,3,2.2,4.7,1.3L230.3,238.8z"/>
				</g>
				<g id="XMLID_14_">
					<path id="XMLID_17_" class="st4" d="M255.5,281.8c-1.7,1-3.8,0.4-4.8-1.2l-7-12c-1-1.7-0.4-3.8,1.2-4.8l0,0
						c1.7-1,3.8-0.4,4.8,1.2l7,12C257.7,278.7,257.1,280.8,255.5,281.8L255.5,281.8z"/>
					<path id="XMLID_16_" class="st15" d="M256.7,277.1l-3.5-6l-6,3.5l3.5,6c1,1.7,3.1,2.2,4.8,1.2
						C257.1,280.8,257.7,278.7,256.7,277.1z"/>
					<path id="XMLID_15_" class="st5" d="M244.9,263.9c-1.6,1-2.1,3.1-1.2,4.7l7,12c1,1.6,3,2.2,4.7,1.3L244.9,263.9z"/>
				</g>
				<g id="XMLID_10_">
					<path id="XMLID_13_" class="st4" d="M228.8,263.8c-1.7,1-3.8,0.4-4.8-1.2l-7-12c-1-1.7-0.4-3.8,1.2-4.8l0,0
						c1.7-1,3.8-0.4,4.8,1.2l7,12C231,260.7,230.5,262.9,228.8,263.8L228.8,263.8z"/>
					<path id="XMLID_12_" class="st15" d="M230,259.1l-3.5-6l-6,3.5l3.5,6c1,1.7,3.1,2.2,4.8,1.2C230.5,262.9,231,260.7,230,259.1z"
						/>
					<path id="XMLID_11_" class="st5" d="M218.2,245.9c-1.6,1-2.1,3.1-1.2,4.7l7,12c1,1.6,3,2.2,4.7,1.3L218.2,245.9z"/>
				</g>
				<g id="XMLID_6_">
					<path id="XMLID_9_" class="st4" d="M243.4,288.8c-1.7,1-3.8,0.4-4.8-1.2l-7-12c-1-1.7-0.4-3.8,1.2-4.8l0,0
						c1.7-1,3.8-0.4,4.8,1.2l7,12C245.6,285.8,245.1,287.9,243.4,288.8L243.4,288.8z"/>
					<path id="XMLID_8_" class="st15" d="M244.7,284.1l-3.5-6l-6,3.5l3.5,6c1,1.7,3.1,2.2,4.8,1.2
						C245.1,287.9,245.6,285.8,244.7,284.1z"/>
					<path id="XMLID_7_" class="st5" d="M232.8,270.9c-1.6,1-2.1,3.1-1.2,4.7l7,12c1,1.6,3,2.2,4.7,1.3L232.8,270.9z"/>
				</g>
				<path id="XMLID_5_" class="st16" d="M290.2,209.8l19.7,33.7c3.3,5.7,1.4,13.1-4.3,16.4l-57.9,33.8L290.2,209.8z"/>
			</g>
			<path id="XMLID_3_" class="st9" d="M216.3,236c-3.8,0.9-7.6-1.5-8.5-5.3l0,0c-0.9-3.8-0.1-6.7,3.7-7.6l46.9-10
				c3.8-0.9,7.6,1.5,8.5,5.3l0,0c0.9,3.8-1.5,7.6-5.3,8.5L216.3,236z"/>
		</g>
		<g class="st2">
			<g>
				<g>
					<path class="st3" d="M187.1,373.6c-2.1,1.9-5.4,1.8-7.3-0.3l0,0c-1.9-2.1-1.8-5.4,0.3-7.3l25.4-22.3c2.1-1.9,5.4-1.8,7.3,0.3
						l0,0c1.9,2.1,1.8,5.4-0.3,7.3L187.1,373.6z"/>
					<path class="st3" d="M188.8,387.9c-2.1,1.9-5.4,1.8-7.3-0.3l0,0c-1.9-2.1-1.8-5.4,0.3-7.3l25.4-22.3c2.1-1.9,5.4-1.8,7.3,0.3
						l0,0c1.9,2.1,1.8,5.4-0.3,7.3L188.8,387.9z"/>
					<path class="st3" d="M190.6,401.9c-2.1,1.9-5.4,1.8-7.3-0.3l0,0c-1.9-2.1-1.8-5.4,0.3-7.3L209,372c2.1-1.9,5.4-1.8,7.3,0.3l0,0
						c1.9,2.1,1.8,5.4-0.3,7.3L190.6,401.9z"/>
					<path class="st3" d="M203,405.3c-2.1,1.9-5.4,1.8-7.3-0.3l0,0c-1.9-2.1-1.8-5.4,0.3-7.3l10.1-8.9c2.1-1.9,5.4-1.8,7.3,0.3l0,0
						c1.9,2.1,1.8,5.4-0.3,7.3L203,405.3z"/>
					<path class="st3" d="M188.5,416.2c-7.3,5-17.3,4.9-22.3-2.4l-8.7-12.7c-5-7.3-3.1-17.3,4.2-22.3l15.5-10.9
						c18-14.7,14.6-1,16.8,6.4l8.7,12.7c8,9.9,4.5,15.6-2.2,21.3C193.9,413.9,188.5,416.2,188.5,416.2z"/>
					<polygon class="st3" points="177.9,412.6 163.4,390.9 -46.8,448.1 -25.8,485.2 					"/>
				</g>
			</g>
			<g>
				<path class="st7" d="M182.6,326.3l-8.4,102.6c-0.6,7.4,4.9,13.8,12.2,14.4c7.4,0.6,13.8-4.9,14.4-12.3l8.4-102.6L182.6,326.3z"
					/>
				<path class="st17" d="M181.5,377.1l-4.2,50.8c-0.5,5.7,3.8,10.7,9.4,11.1c5.7,0.5,10.7-3.8,11.1-9.4l4.2-50.8L181.5,377.1z"/>
				
					<rect x="191.2" y="318.4" transform="matrix(-8.151774e-002 0.9967 -0.9967 -8.151774e-002 542.2312 163.8961)" class="st14" width="8.8" height="26.8"/>
				<path class="st7" d="M212.8,328.8c-0.2,2-2,3.5-4,3.4l-26.3-2.2c-2-0.2-3.5-2-3.4-4l0,0c0.2-2,1.9-3.5,4-3.4l26.3,2.2
					C211.5,325,213,326.8,212.8,328.8L212.8,328.8z"/>
				<circle class="st12" cx="186.6" cy="388.6" r="3.6"/>
				<circle class="st12" cx="195.9" cy="385.8" r="2.8"/>
				<path class="st12" d="M188,405.5c-0.1,1.5-1.5,2.7-3,2.5c-1.5-0.1-2.7-1.5-2.5-3c0.1-1.5,1.5-2.7,3-2.6
					C187,402.6,188.1,403.9,188,405.5z"/>
				<circle class="st12" cx="195.3" cy="393.3" r="2.2"/>
				<circle class="st12" cx="194.8" cy="409" r="1.9"/>
				<circle class="st12" cx="187.5" cy="397.5" r="1.6"/>
				<circle class="st12" cx="183.4" cy="414.3" r="1.1"/>
				<circle class="st12" cx="198" cy="401.1" r="1.1"/>
				<g id="XMLID_1_">
					<line class="st18" x1="206.3" y1="337.1" x2="195.2" y2="336.2"/>
					<line class="st18" x1="205.5" y1="346.7" x2="194.4" y2="345.8"/>
					<line class="st18" x1="204.7" y1="356.3" x2="193.6" y2="355.4"/>
					<line class="st18" x1="203.9" y1="365.9" x2="192.8" y2="365"/>
					<line class="st18" x1="203.1" y1="375.5" x2="192" y2="374.6"/>
				</g>
			</g>
			<path class="st3" d="M165.9,390.3c-1.8,2.6-5.3,3.3-7.9,1.6l0,0c-2.6-1.8-3.3-5.3-1.6-7.9l21.6-30.5c1.8-2.6,5.3-3.3,7.9-1.6l0,0
				c2.6,1.8,3.3,5.3,1.6,7.9L165.9,390.3z"/>
			<path class="st3" d="M205.6,372.4c-2.1,1.9-5.4,1.8-7.3-0.3l0,0c-1.9-2.1-1.8-5.4,0.3-7.3l8.7-7.6c2.1-1.9,5.4-1.8,7.3,0.3l0,0
				c1.9,2.1,1.8,5.4-0.3,7.3L205.6,372.4z"/>
			<path class="st3" d="M204.1,388.9c-2.1,1.9-5.4,1.8-7.3-0.3l0,0c-1.9-2.1-1.8-5.4,0.3-7.3l11.9-10.1c2.1-1.9,5.4-1.8,7.3,0.3l0,0
				c1.9,2.1,1.8,5.4-0.3,7.3L204.1,388.9z"/>
			<path class="st3" d="M205.3,404c-1.9,2.1-5.2,2.3-7.3,0.4l0,0c-2.1-1.9-2.3-5.2-0.4-7.3l6.4-6.2c1.9-2.1,5.2-2.3,7.3-0.4l0,0
				c2.1,1.9,2.3,5.2,0.4,7.3L205.3,404z"/>
		</g>
		<g class="st2">
			<g>
				<g>
					<path class="st3" d="M120.4,293.6c-2.7,0.9-5.6-0.6-6.5-3.4l0,0c-0.9-2.7,0.6-5.6,3.4-6.5l32.5-9.3c2.7-0.9,5.6,0.6,6.5,3.4
						l0,0c0.9,2.7-0.6,5.6-3.4,6.5L120.4,293.6z"/>
					<path class="st3" d="M115.8,307.3c-2.7,0.9-5.6-0.6-6.5-3.4l0,0c-0.9-2.7,0.6-5.6,3.4-6.5l32.5-9.3c2.7-0.9,5.6,0.6,6.5,3.4
						l0,0c0.9,2.7-0.6,5.6-3.4,6.5L115.8,307.3z"/>
					<path class="st3" d="M111.4,320.7c-2.7,0.9-5.6-0.7-6.5-3.4l0,0c-0.9-2.7,0.6-5.6,3.4-6.5l32.5-9.3c2.7-0.9,5.6,0.6,6.5,3.4
						l0,0c0.9,2.7-0.6,5.6-3.4,6.5L111.4,320.7z"/>
					<path class="st3" d="M121.2,329c-2.7,0.9-5.6-0.7-6.5-3.4l0,0c-0.9-2.7,0.6-5.6,3.4-6.5l12.9-3.7c2.7-0.9,5.6,0.6,6.5,3.4l0,0
						c0.9,2.7-0.6,5.6-3.4,6.5L121.2,329z"/>
					<path class="st3" d="M103.5,332.7c-8.8,1.4-17.7-3-19.2-11.7l-2.4-15.3c-1.4-8.8,4.6-17,13.3-18.4l18.6-3.2
						c22.5-5.6,13.6,5.3,12.4,13l2.4,15.3c3,12.4-2.5,16-11.1,18.3C109.3,332.9,103.5,332.7,103.5,332.7z"/>
					<polygon class="st3" points="93.3,327.3 97,301.4 -147.3,278.7 -156.5,320.3 					"/>
				</g>
			</g>
			<g>
				<path class="st7" d="M124.8,325.1c-4.2,7.4-13.5,10-20.9,5.9l-0.1-0.1c-7.4-4.2-10-13.5-5.9-20.9l23.7-42
					c4.2-7.4,13.5-10,20.9-5.9l0.1,0.1c7.4,4.2,10,13.5,5.9,20.9L124.8,325.1z"/>
				<path class="st4" d="M110.2,288.2L97.9,310c-4.2,7.4-1.5,16.8,5.9,20.9l0.1,0.1c7.4,4.2,16.8,1.5,20.9-5.9l12.1-21.5
					L110.2,288.2z"/>
				<path class="st5" d="M142.5,262.1l0.1,0.1c7.4,4.2,10,13.5,5.9,20.9l-23.7,42c-4.2,7.4-13.5,10-20.9,5.9l-0.1-0.1L142.5,262.1z"
					/>
			</g>
			<g>
				<path class="st3" d="M94.1,299.6c-2.7,1.6-6.2,0.7-7.9-2l0,0c-1.6-2.7-0.8-6.2,2-7.9l32.6-18.3c2.7-1.6,6.2-0.7,7.9,2l0,0
					c1.6,2.7,0.7,6.2-2,7.9L94.1,299.6z"/>
				<path class="st3" d="M137.6,300.4c-2.7,0.9-5.6-0.6-6.5-3.4l0,0c-0.9-2.7,0.6-5.6,3.4-6.5l11.1-3.1c2.7-0.9,5.6,0.6,6.5,3.4l0,0
					c0.9,2.7-0.6,5.6-3.4,6.5L137.6,300.4z"/>
				<path class="st3" d="M129.2,314.7c-2.7,0.9-5.6-0.6-6.5-3.4l0,0c-0.9-2.7,0.6-5.6,3.4-6.5l15.1-4.1c2.7-0.9,5.6,0.6,6.5,3.4l0,0
					c0.9,2.7-0.6,5.6-3.4,6.5L129.2,314.7z"/>
				<path class="st3" d="M123.9,328.8c-2.6,1.1-5.7-0.2-6.8-2.8l0,0c-1.1-2.6,0.1-5.7,2.8-6.8l8.5-2.9c2.6-1.1,5.7,0.2,6.8,2.8l0,0
					c1.1,2.6-0.1,5.7-2.8,6.8L123.9,328.8z"/>
			</g>
		</g>
		<g class="st2">
			<text transform="matrix(1 0 0 1 340.4619 107.0195)" class="st7 st19 st20">HEALTH</text>
		</g>
		<polyline class="st21" points="224.1,118.4 255.6,118.4 264.8,95.7 280.5,158.4 298.9,70.3 316.7,177.7 338.3,114.4 447.3,114.4 
			447.3,114.9 453.6,99.4 464.3,142.2 476.9,82 489,155.3 503.7,112.1 557.2,112.1 		"/>
		<g class="st2">
			<g>
				<g>
					<path class="st9" d="M705.1,310.7c2.8,0.3,5.3-1.8,5.5-4.6l0,0c0.3-2.8-1.8-5.3-4.6-5.5l-33.2-2c-2.8-0.3-5.3,1.8-5.5,4.6l0,0
						c-0.3,2.8,1.8,5.3,4.6,5.5L705.1,310.7z"/>
					<path class="st9" d="M700.6,322c2.8,0.3,5.3-1.8,5.5-4.6l0,0c0.3-2.8-1.8-5.3-4.6-5.5l-33.2-2c-2.8-0.3-5.3,1.8-5.5,4.6l0,0
						c-0.3,2.8,1.8,5.3,4.6,5.5L700.6,322z"/>
					<path class="st9" d="M701.9,333.7c2.8,0.3,5.3-1.8,5.5-4.6l0,0c0.3-2.8-1.8-5.3-4.6-5.5l-33.2-2c-2.8-0.3-5.3,1.8-5.5,4.6l0,0
						c-0.3,2.8,1.8,5.3,4.6,5.5L701.9,333.7z"/>
					<path class="st9" d="M707.8,345.8c2.8,0.3,5.3-1.8,5.5-4.6l0,0c0.3-2.8-1.8-5.3-4.6-5.5l-33.2-2c-2.8-0.3-5.3,1.8-5.5,4.6l0,0
						c-0.3,2.8,1.8,5.3,4.6,5.5L707.8,345.8z"/>
					<path class="st9" d="M730.3,345c8.5-0.5,15-7.8,14.5-16.3l-0.9-14.8c-0.5-8.5-7.8-15-16.3-14.5l-18.2,0.8
						c-22.3-0.6-11.7,7.8-9,14.8l0.9,14.8c-0.2,12.2,5.5,15.7,14.1,16.1C723.8,346.3,730.3,345,730.3,345z"/>
					<polygon class="st9" points="737.9,339.6 733.6,309.7 952.7,319.8 958.5,360.3 					"/>
				</g>
			</g>
			<path class="st9" d="M734,311.7c2.5,1.7,6,0.9,7.6-1.6l0,0c1.7-2.5,0.9-6-1.6-7.6l-30.6-18.8c-2.5-1.7-6-0.9-7.6,1.6l0,0
				c-1.7,2.5-0.9,6,1.6,7.6L734,311.7z"/>
			<g>
				<circle class="st7" cx="705" cy="318.2" r="22.9"/>
				<path class="st22" d="M721.6,334l-33.8-30.9c-8.3,9.4-7.5,23.6,1.7,32.1C698.8,343.6,713.1,343.1,721.6,334z"/>
				
					<ellipse transform="matrix(-0.6745 0.7382 -0.7382 -0.6745 1415.23 13.1015)" class="st16" cx="704.7" cy="318.5" rx="3.5" ry="22.6"/>
			</g>
		</g>
		<g class="st2">
			<g>
				<g>
					<path class="st3" d="M625.1,391.5c2.5,1.6,5.8,0.9,7.4-1.6l0,0c1.6-2.5,0.9-5.8-1.6-7.4l-29.8-18.1c-2.5-1.6-5.8-0.9-7.4,1.6
						l0,0c-1.6,2.5-0.9,5.8,1.6,7.4L625.1,391.5z"/>
					<path class="st3" d="M625.8,406.4c2.5,1.6,5.8,0.9,7.4-1.6l0,0c1.6-2.5,0.9-5.8-1.6-7.4l-29.8-18.1c-2.5-1.6-5.8-0.9-7.4,1.6
						l0,0c-1.6,2.5-0.9,5.8,1.6,7.4L625.8,406.4z"/>
					<path class="st3" d="M626.5,420.9c2.5,1.6,5.8,0.9,7.4-1.6l0,0c1.6-2.5,0.9-5.8-1.6-7.4l-29.8-18.1c-2.5-1.6-5.8-0.9-7.4,1.6
						l0,0c-1.6,2.5-0.9,5.8,1.6,7.4L626.5,420.9z"/>
					<path class="st3" d="M614.5,426.6c2.5,1.6,5.8,0.9,7.4-1.6l0,0c1.6-2.5,0.9-5.8-1.6-7.4l-11.8-7.3c-2.5-1.6-5.8-0.9-7.4,1.6
						l0,0c-1.6,2.5-0.9,5.8,1.6,7.4L614.5,426.6z"/>
					<path class="st3" d="M631.2,435c8.3,3.8,18.5,1.9,22.3-6.4l6.6-14.5c3.8-8.3,0.1-18.2-8.2-22l-17.7-8.3
						c-20.9-11.8-15,1.6-15.9,9.5l-6.6,14.5c-6.3,11.5-1.9,16.6,6,21.3C625.3,433.7,631.2,435,631.2,435z"/>
					<polygon class="st3" points="641.3,429.5 652.3,404.9 876.3,425.9 861.5,467.3 					"/>
				</g>
			</g>
			<g>
				<circle class="st7" cx="638.8" cy="462" r="41.6"/>
				<path class="st7" d="M621.3,342.6L648,445.5c1.9,7.4-2.5,14.9-9.9,16.9c-7.4,1.9-14.9-2.5-16.9-9.9l-26.7-102.9L621.3,342.6z"/>
				<path class="st17" d="M631.4,394.1l13.2,50.9c1.5,5.7-1.9,11.5-7.6,13c-5.7,1.5-11.5-1.9-13-7.6l-13.2-50.9L631.4,394.1z"/>
				<circle class="st17" cx="638.8" cy="462" r="34.8"/>
				
					<rect x="604.5" y="336.6" transform="matrix(0.2514 0.9679 -0.9679 0.2514 795.0801 -327.118)" class="st14" width="9.1" height="27.7"/>
				<path class="st7" d="M591,350.4c0.5,2,2.6,3.3,4.7,2.7l26.4-6.9c2-0.5,3.3-2.6,2.7-4.7l0,0c-0.5-2-2.6-3.3-4.7-2.7l-26.4,6.9
					C591.7,346.3,590.4,348.4,591,350.4L591,350.4z"/>
				<path class="st12" d="M618.6,441.7c0.5,2,2.5,3.2,4.5,2.7c2-0.5,3.2-2.6,2.7-4.5c-0.5-2-2.5-3.2-4.5-2.7
					C619.3,437.7,618.1,439.7,618.6,441.7z"/>
				<circle class="st12" cx="613.8" cy="453.7" r="2.9"/>
				<circle class="st12" cx="640.7" cy="435.8" r="2.9"/>
				<circle class="st12" cx="620.4" cy="416.5" r="2.3"/>
				<path class="st12" d="M623,468.5c0.3,1.1,1.4,1.7,2.5,1.4c1.1-0.3,1.7-1.4,1.4-2.4c-0.3-1.1-1.4-1.7-2.5-1.4
					C623.4,466.3,622.8,467.4,623,468.5z"/>
				<path class="st12" d="M621.6,457c0.2,0.9,1.1,1.4,2,1.2c0.9-0.2,1.4-1.1,1.2-2c-0.2-0.9-1.1-1.4-2-1.2
					C621.9,455.2,621.4,456.1,621.6,457z"/>
				<circle class="st12" cx="648.3" cy="459" r="1.1"/>
				<circle class="st12" cx="612.8" cy="465.8" r="1.1"/>
				<circle class="st12" cx="628.8" cy="424.9" r="3.7"/>
				<path class="st12" d="M628.2,413.9c0.4,1.5,2,2.5,3.5,2.1c1.5-0.4,2.5-2,2.1-3.5c-0.4-1.5-2-2.5-3.5-2.1
					C628.7,410.8,627.8,412.4,628.2,413.9z"/>
				<path class="st12" d="M648.2,444.7c0.4,1.5,2,2.5,3.5,2.1c1.5-0.4,2.5-2,2.1-3.5c-0.4-1.5-2-2.5-3.5-2.1
					C648.7,441.5,647.8,443.1,648.2,444.7z"/>
				<path class="st12" d="M629.7,443.4c0.3,1.2,1.6,2,2.8,1.6c1.2-0.3,2-1.6,1.6-2.8c-0.3-1.2-1.6-2-2.8-1.6
					C630.1,441,629.4,442.2,629.7,443.4z"/>
				<circle class="st12" cx="635.1" cy="458.7" r="2"/>
				<circle class="st12" cx="640.6" cy="445.7" r="1.7"/>
				<path class="st12" d="M660,450.7c0.2,0.6,0.8,1,1.4,0.8c0.6-0.2,1-0.8,0.8-1.4c-0.2-0.6-0.8-1-1.4-0.8
					C660.2,449.4,659.9,450.1,660,450.7z"/>
				<circle class="st12" cx="630.6" cy="451.2" r="1.1"/>
				<g id="XMLID_64_">
					<line class="st23" x1="599.1" y1="357.7" x2="610.2" y2="354.8"/>
					<line class="st23" x1="601.6" y1="367.3" x2="612.7" y2="364.5"/>
					<line class="st23" x1="604.1" y1="377" x2="615.2" y2="374.1"/>
					<line class="st23" x1="606.6" y1="386.6" x2="617.7" y2="383.7"/>
					<line class="st23" x1="609.2" y1="396.2" x2="620.2" y2="393.3"/>
				</g>
			</g>
			<path class="st3" d="M649.6,404.7c2.3,2.4,6,2.5,8.4,0.2l0,0c2.4-2.3,2.5-6,0.2-8.4l-27.4-27.2c-2.3-2.4-6-2.5-8.4-0.2l0,0
				c-2.4,2.3-2.5,6-0.2,8.4L649.6,404.7z"/>
			<path class="st3" d="M606,393.5c2.5,1.6,5.8,0.9,7.4-1.6l0,0c1.6-2.5,0.9-5.8-1.6-7.4l-10.2-6.2c-2.5-1.6-5.8-0.9-7.4,1.6l0,0
				c-1.6,2.5-0.9,5.8,1.6,7.4L606,393.5z"/>
			<path class="st3" d="M610.4,410c2.5,1.6,5.8,0.9,7.4-1.6l0,0c1.6-2.5,0.9-5.8-1.6-7.4l-13.9-8.2c-2.5-1.6-5.8-0.9-7.4,1.6l0,0
				c-1.6,2.5-0.9,5.8,1.6,7.4L610.4,410z"/>
			<path class="st3" d="M611.9,425.6c2.3,1.8,5.7,1.4,7.5-0.9l0,0c1.8-2.3,1.4-5.7-0.9-7.5l-7.6-5.2c-2.3-1.8-5.7-1.4-7.5,0.9l0,0
				c-1.8,2.3-1.4,5.7,0.9,7.5L611.9,425.6z"/>
		</g>
		<g class="st2">
			<g>
				<g>
					<path class="st3" d="M594.7,206c3.4,0.1,6.2-2.7,6.3-6.1l0,0c0.1-3.4-2.7-6.2-6.1-6.3l-40.5,0.6c-3.4-0.1-6.2,2.7-6.3,6.1l0,0
						c0,3.4,2.7,6.2,6.1,6.3L594.7,206z"/>
					<path class="st3" d="M604.7,220.2c3.4,0.1,6.2-2.7,6.3-6.1l0,0c0.1-3.4-2.7-6.2-6.1-6.3l-40.5,0.6c-3.4-0.1-6.2,2.7-6.3,6.1
						l0,0c-0.1,3.4,2.7,6.2,6.1,6.3L604.7,220.2z"/>
					<path class="st3" d="M614.3,234.1c3.4,0.1,6.2-2.7,6.3-6.1l0,0c0.1-3.4-2.7-6.2-6.1-6.3l-40.5,0.6c-3.4-0.1-6.2,2.7-6.3,6.1
						l0,0c-0.1,3.4,2.7,6.2,6.1,6.3L614.3,234.1z"/>
					<path class="st3" d="M605.9,247.1c3.4,0,6.2-2.7,6.3-6.1l0,0c0.1-3.4-2.7-6.2-6.1-6.3l-16.1,0.1c-3.4-0.1-6.2,2.7-6.3,6.1l0,0
						c0,3.4,2.7,6.2,6.1,6.3L605.9,247.1z"/>
					<path class="st3" d="M627.6,245.1c10.5-1.4,19.4-9.5,18-20.1l-2.4-18.4c-1.4-10.5-11.1-17.9-21.6-16.5l-22.5,2.7
						c-27.8,1.3-13.8,10.8-9.8,19.2l2.4,18.4c0.9,15.2,8.4,17.5,19.1,17.2C621,247.3,627.6,245.1,627.6,245.1z"/>
					<polygon class="st3" points="634.2,233.4 629.7,202.4 924.3,139.3 935.4,189.2 					"/>
					<g>
						<g>
							<path class="st7" d="M635,270.4c3.3,6.5,0.7,14.4-5.7,17.7l0,0c-6.5,3.3-14.4,0.7-17.7-5.7l-69.9-137.1
								c-3.3-6.5-0.7-14.4,5.7-17.7l0,0c6.5-3.3,14.4-0.7,17.7,5.7L635,270.4z"/>
							<g id="XMLID_65_">
								<line class="st24" x1="548.6" y1="145.7" x2="545.6" y2="147.2"/>
								<line class="st24" x1="554.6" y1="157.4" x2="551.6" y2="159"/>
								<line class="st24" x1="560.5" y1="169.2" x2="557.6" y2="170.7"/>
								<line class="st24" x1="566.5" y1="180.9" x2="563.5" y2="182.4"/>
								<line class="st24" x1="572.5" y1="192.6" x2="569.5" y2="194.1"/>
								<line class="st24" x1="578.5" y1="204.3" x2="575.5" y2="205.8"/>
								<line class="st24" x1="584.4" y1="216" x2="581.4" y2="217.5"/>
								<line class="st24" x1="590.4" y1="227.7" x2="587.4" y2="229.3"/>
								<line class="st24" x1="596.4" y1="239.5" x2="593.4" y2="241"/>
								<line class="st24" x1="602.3" y1="251.2" x2="599.4" y2="252.7"/>
								<line class="st24" x1="608.3" y1="262.9" x2="605.3" y2="264.4"/>
								<line class="st24" x1="614.3" y1="274.6" x2="611.3" y2="276.1"/>
							</g>
							<path class="st7" d="M648.1,306.4c2.1,4.1,0.5,9.2-3.7,11.3l0,0c-4.1,2.1-9.2,0.5-11.3-3.7l-39.7-77.8
								c-2.1-4.1-0.5-9.2,3.7-11.3l0,0c4.1-2.1,9.2-0.5,11.3,3.7L648.1,306.4z"/>
							<path class="st4" d="M643.2,305.7c1.1,2.1,0.2,4.7-1.9,5.8l0,0c-2.1,1.1-4.7,0.2-5.8-1.9l-18-35.3c-1.1-2.1-0.2-4.7,1.9-5.8
								l0,0c2.1-1.1,4.7-0.2,5.8,1.9L643.2,305.7z"/>
							<g>
								
									<rect x="584.9" y="128.7" transform="matrix(0.8909 -0.4542 0.4542 0.8909 -30.8625 290.4836)" class="st14" width="8.6" height="161.6"/>
								<path class="st14" d="M574.5,171c1.1,2.1,0.2,4.7-1.9,5.8l0,0c-2.1,1.1-4.7,0.2-5.8-1.9l-18-35.3c-1.1-2.1-0.2-4.7,1.9-5.8
									l0,0c2.1-1.1,4.7-0.2,5.8,1.9L574.5,171z"/>
							</g>
							<path class="st4" d="M599,219.1c1.1,2.1,0.2,4.7-1.9,5.8l0,0c-2.1,1.1-4.7,0.2-5.8-1.9l-18-35.3c-1.1-2.1-0.2-4.7,1.9-5.8
								l0,0c2.1-1.1,4.7-0.2,5.8,1.9L599,219.1z"/>
							
								<rect x="598" y="180.4" transform="matrix(0.8908 -0.4544 0.4544 0.8908 -41.0212 299.3385)" class="st4" width="8.6" height="109.2"/>
							<path class="st5" d="M548,127.3l96.9,190.1c3.7-2.3,5.2-7,3.1-11l-12.7-24.9c1.5-3.5,1.5-7.5-0.4-11.2l-69.9-137.1
								C561.9,127,554.4,124.4,548,127.3z"/>
						</g>
					</g>
				</g>
			</g>
			<path class="st3" d="M626.9,203.9c3.7,0.9,7.4-1.3,8.3-5l0,0c0.9-3.7-1.3-7.4-5-8.3l-43.7-9.8c-3.7-0.9-7.4,1.3-8.3,5l0,0
				c-0.9,3.7,1.3,7.4,5,8.3L626.9,203.9z"/>
			<g>
				<path class="st3" d="M577.2,220.8c3.4,0.1,6.2-2.7,6.3-6.1l0,0c0-3.4-2.7-6.2-6.1-6.3l-13.8,0.2c-3.4-0.1-6.2,2.7-6.3,6.1l0,0
					c-0.1,3.4,2.7,6.2,6.1,6.3L577.2,220.8z"/>
				<path class="st3" d="M591.7,234.3c3.4,0.1,6.2-2.7,6.3-6.1l0,0c0-3.4-2.7-6.2-6.1-6.3l-18.7,0.5c-3.4-0.1-6.2,2.7-6.3,6.1l0,0
					c-0.1,3.4,2.7,6.2,6.1,6.3L591.7,234.3z"/>
				<path class="st3" d="M598.4,250.2c3.4,0.4,6.5-2.1,6.8-5.5l0,0c0.4-3.4-2.1-6.5-5.5-6.8l-10.7-0.4c-3.4-0.4-6.5,2.1-6.8,5.5l0,0
					c-0.4,3.4,2.1,6.5,5.5,6.8L598.4,250.2z"/>
			</g>
		</g>
	</g>
</g>
</svg>
